<svg viewBox="0 0 100 100" width="100" height="100" xmlns="http://www.w3.org/2000/svg">
    <path fill="currentColor" d="m46.88039,79.91433c-8.99821,-6.45785 -14.2661,-10.78983 -19.46714,-15.96413c-4.79993,-4.78656 -7.42051,-8.0088 -9.93413,-12.22045c-2.71417,-4.5459 -4.26512,-8.90461 -4.84004,-13.67781c-0.20055,-1.65792 -0.09359,-5.26789 0.20055,-6.85896c0.52144,-2.84787 1.69803,-5.65563 3.46291,-8.28958c0.9894,-1.47073 3.89076,-4.39883 5.308,-5.36149c4.19827,-2.87461 9.25224,-4.25175 13.93184,-3.81053c5.33475,0.4947 9.68009,2.46013 13.45051,6.08348l0.69526,0.66851l0.77548,-0.73537c2.78102,-2.68743 6.44448,-4.69297 10.09457,-5.5353c1.27018,-0.29415 3.71694,-0.60166 4.77319,-0.60166c4.34534,0 9.29235,1.61781 12.76863,4.17153c1.39051,1.01614 4.02446,3.74368 4.96038,5.12082c2.59384,3.81053 3.78379,7.70129 3.79716,12.31404c0,6.11022 -1.9788,12.10011 -6.07011,18.23708c-5.06734,7.64781 -13.74466,15.81705 -27.02136,25.4704c-1.39051,1.01614 -2.84787,2.08577 -3.22224,2.36654c-0.37437,0.28078 -0.76211,0.50807 -0.86907,0.50807c-0.10696,-0.01337 -1.36377,-0.8557 -2.79439,-1.88521l0,0.00001z" id="svg_1"/>
</svg>
