<svg width="512" height="512" xmlns="http://www.w3.org/2000/svg" class="hovered-paths" xml:space="preserve">

 <g>
  <title>Layer 1</title>
     <path id="svg_1" fill="#AF8655" d="m353.436,500.466l-316.611,0c-16.196,0 -29.325,-13.129 -29.325,-29.325l0,-430.282c0,-16.196 13.129,-29.325 29.325,-29.325l316.611,0c16.196,0 29.325,13.129 29.325,29.325l0,430.282c0,16.196 -13.129,29.325 -29.325,29.325z"/>
     <path id="svg_2" fill="#AF8655" d="m442.903,67.957l35.645,0l0,233.77l-35.645,0l0,-233.77z"/>
     <path id="svg_3" fill="#AF8655" d="m469.603,11.534l-17.756,0c-2.902,0 -5.465,1.894 -6.317,4.668l-10.169,33.103c-1.346,4.383 -1.197,9.088 0.426,13.377l7.116,18.813l35.644,0l7.116,-18.813c1.622,-4.288 1.772,-8.994 0.426,-13.377l-10.169,-33.103c-0.852,-2.774 -3.414,-4.668 -6.317,-4.668z"/>
     <path id="svg_4" fill="#fff" d="m504.5,321.377l0,-13.87c0,-4.561 -3.698,-8.259 -8.259,-8.259l-71.031,0c-4.561,0 -8.259,3.698 -8.259,8.259l0,13.87c0,4.561 3.698,8.259 8.259,8.259l0.028,0c6.198,0 9.753,7.065 6.059,12.042c-1.358,1.83 -2.996,3.474 -4.867,4.871c-5.833,4.357 -9.48,11.03 -9.48,18.31l0,107.76c0,15.379 12.467,27.847 27.847,27.847l31.855,0c15.379,0 27.847,-12.467 27.847,-27.847l0,-107.885c0,-7.213 -3.597,-13.852 -9.405,-18.129c-1.919,-1.413 -3.58,-3.096 -4.949,-4.975c-3.631,-4.989 -0.076,-11.993 6.095,-11.993c4.562,-0.001 8.26,-3.699 8.26,-8.26z"/>
     <path id="svg_5" fill="#AF8655" d="m504.5,321.377l0,-13.87c0,-4.561 -3.698,-8.259 -8.259,-8.259l-71.031,0c-4.561,0 -8.259,3.698 -8.259,8.259l0,13.87c0,4.561 3.698,8.259 8.259,8.259l0.028,0l71.003,0c4.561,0 8.259,-3.698 8.259,-8.259z"/>
     <path id="svg_6" fill="#AF8655" d="m465.142,450.409l39.358,0l0,-71.055l-39.358,0c-2.439,0 -4.417,1.977 -4.417,4.417l0,62.222c0,2.439 1.978,4.416 4.417,4.416z"/>
     <path id="svg_7" fill="#0f2444" d="m309.917,341.962l-165.406,0c-4.142,0 -7.5,3.357 -7.5,7.5s3.358,7.5 7.5,7.5l165.406,0c4.143,0 7.5,-3.357 7.5,-7.5s-3.357,-7.5 -7.5,-7.5z"/>
     <path id="svg_8" fill="#0f2444" d="m309.917,385.687l-165.406,0c-4.142,0 -7.5,3.357 -7.5,7.5s3.358,7.5 7.5,7.5l165.406,0c4.143,0 7.5,-3.357 7.5,-7.5s-3.357,-7.5 -7.5,-7.5z"/>
     <path id="svg_9" fill="#0f2444" d="m353.437,4.034l-316.612,0c-20.305,0 -36.825,16.52 -36.825,36.825l0,430.281c0,20.306 16.52,36.825 36.825,36.825l316.611,0c20.306,0 36.825,-16.52 36.825,-36.825l0,-430.281c0.001,-20.305 -16.519,-36.825 -36.824,-36.825zm21.825,467.107c0,12.034 -9.791,21.825 -21.825,21.825l-274.271,0l0,-260.214c0,-4.143 -3.358,-7.5 -7.5,-7.5s-7.5,3.357 -7.5,7.5l0,260.214l-27.341,0c-12.034,0 -21.825,-9.791 -21.825,-21.825l0,-430.282c0,-12.034 9.791,-21.825 21.825,-21.825l27.341,0l0,178.655c0,4.143 3.358,7.5 7.5,7.5s7.5,-3.357 7.5,-7.5l0,-178.655l274.271,0c12.034,0 21.825,9.791 21.825,21.825l0,430.282z"/>
     <path id="svg_10" fill="#0f2444" d="m512,321.377l0,-13.869c0,-8.69 -7.069,-15.76 -15.759,-15.76l-10.193,0l0,-208.884l6.631,-17.529c2.199,-5.813 2.405,-12.288 0.58,-18.232l-10.169,-33.104c-1.831,-5.96 -7.251,-9.965 -13.486,-9.965l-17.756,0c-6.237,0 -11.657,4.006 -13.486,9.966l-10.169,33.102c-1.826,5.942 -1.62,12.418 0.58,18.233l6.631,17.529l0,208.884l-10.194,0c-8.689,0 -15.759,7.069 -15.759,15.76l0,13.869c0,8.832 7.263,15.759 15.787,15.759l0.021,0c0.016,0.025 0.031,0.057 0.017,0.072c-0.932,1.255 -2.054,2.377 -3.333,3.333c-7.938,5.929 -12.491,14.793 -12.491,24.318l0,32.584c0,4.143 3.357,7.5 7.5,7.5s7.5,-3.357 7.5,-7.5l0,-32.584c0,-4.747 2.357,-9.23 6.47,-12.302c5.155,-3.853 9.394,-8.94 9.367,-15.422l40.905,0c-0.025,6.487 4.299,11.711 9.455,15.51c4.036,2.972 6.352,7.378 6.352,12.089l0,7.12l-31.858,0c-6.57,0 -11.916,5.346 -11.916,11.916l0,62.222c0,6.571 5.346,11.917 11.916,11.917l31.857,0l0,14.71c0,11.219 -9.128,20.347 -20.347,20.347l-31.855,0c-11.219,0 -20.347,-9.128 -20.347,-20.347l0,-40.119c0,-4.143 -3.357,-7.5 -7.5,-7.5s-7.5,3.357 -7.5,7.5l0,40.119c0,19.49 15.856,35.347 35.347,35.347l31.855,0c19.49,0 35.347,-15.856 35.347,-35.347l0,-107.885c0,-9.391 -4.657,-18.425 -12.457,-24.167c-1.279,-0.942 -2.4,-2.07 -3.357,-3.354c0.002,-0.027 0.038,-0.063 0.056,-0.078c8.61,0.001 15.758,-7.025 15.758,-15.758zm-43.774,121.532l0,-56.055l28.774,0l0,56.055l-28.774,0zm-25.696,-391.402l9.976,-32.473l16.439,0l9.975,32.472c0.854,2.778 0.757,5.805 -0.271,8.522l-5.283,13.966l-25.281,0l-5.283,-13.966c-1.029,-2.718 -1.124,-5.744 -0.272,-8.521zm7.873,37.487l20.645,0l0,202.754l-20.645,0l0,-202.754zm-25.952,218.514c0,-0.419 0.341,-0.76 0.759,-0.76l71.031,0c0.418,0 0.759,0.341 0.759,0.76l0,13.869c0,0.418 -0.341,0.759 -0.759,0.759l-71.031,0c-0.418,0 -0.759,-0.341 -0.759,-0.759l0,-13.869z"/>
     <g stroke="null" id="svg_13">
   <path stroke="null" id="svg_11" fill="#0f2444" d="m239.42009,214.61781c-2.25861,-1.00383 -5.64653,-4.14079 -7.5287,-7.02678c-3.51339,-5.27009 -3.51339,-5.27009 -3.51339,-49.94037c0,-50.69323 0.12548,-51.19515 9.78731,-56.33976c4.39174,-2.38409 7.02678,-2.63504 25.84853,-2.63504c17.44148,0 21.9587,0.37643 27.47975,2.38409c11.92044,4.39174 20.45297,12.42235 23.84088,22.5861c2.76052,7.77966 1.38026,21.08035 -2.63504,27.35427c-0.87835,1.50574 0.12548,5.39557 1.50574,5.39557c1.38026,0 7.02678,5.52104 9.53635,9.41087c2.00765,3.01148 2.50957,5.89748 2.38409,14.43001c0,11.16757 -1.38026,15.43383 -7.15226,22.08418c-3.88983,4.6427 -14.43001,12.04592 -15.68479,11.29305c-0.62739,-0.37643 -2.25861,0.12548 -3.51339,1.1293c-3.38791,2.63504 -54.45759,2.50957 -60.35507,-0.12548l-0.00001,0zm36.01228,-21.83322c6.52487,-3.38791 8.78348,-6.90131 8.78348,-14.05357c0,-5.14461 -0.62739,-6.52487 -4.39174,-10.4147c-3.38791,-3.26244 -5.52104,-4.39174 -8.658,-4.39174c-9.15992,0 -15.0574,5.89748 -15.0574,14.93192c0,7.65418 2.13313,11.16757 8.40705,14.05357c6.39939,2.886 5.01913,2.886 10.91661,-0.12548l-0.00001,0zm1.00383,-44.67028c5.52104,-2.63504 7.77966,-6.39939 7.77966,-12.79879c0,-5.64653 -4.01531,-12.79879 -7.15226,-12.79879c-0.87835,0 -1.63122,-0.50192 -1.63122,-1.25478c0,-2.00765 -8.28157,-1.38026 -12.42235,0.87835c-5.14461,3.01148 -7.02678,7.02678 -6.77583,14.43001c0.12548,6.52487 1.88217,9.03444 7.90513,11.92044c4.39174,2.00765 7.77966,2.00765 12.29687,-0.37643l0,-0.00001z"/>
         <path stroke="null" id="svg_12" fill="#0f2444" d="m135.91838,214.61781c-2.25861,-1.00383 -5.64653,-4.14079 -7.5287,-7.02678c-3.51339,-5.27009 -3.51339,-5.27009 -3.51339,-49.94037c0,-50.69323 0.12548,-51.19515 9.78731,-56.33976c4.39174,-2.38409 7.02678,-2.63504 25.84853,-2.63504c17.44148,0 21.9587,0.37643 27.47975,2.38409c11.92044,4.39174 20.45297,12.42235 23.84088,22.5861c2.76052,7.77966 1.38026,21.08035 -2.63504,27.35427c-0.87835,1.50574 0.12548,5.39557 1.50574,5.39557c1.38026,0 7.02678,5.52104 9.53635,9.41087c2.00765,3.01148 2.50957,5.89748 2.38409,14.43001c0,11.16757 -1.38026,15.43383 -7.15226,22.08418c-3.88983,4.6427 -14.43001,12.04592 -15.68479,11.29305c-0.62739,-0.37643 -2.25861,0.12548 -3.51339,1.1293c-3.38791,2.63504 -54.45759,2.50957 -60.35507,-0.12548l-0.00001,0zm36.01228,-21.83322c6.52487,-3.38791 8.78348,-6.90131 8.78348,-14.05357c0,-5.14461 -0.62739,-6.52487 -4.39174,-10.4147c-3.38791,-3.26244 -5.52104,-4.39174 -8.658,-4.39174c-9.15992,0 -15.0574,5.89748 -15.0574,14.93192c0,7.65418 2.13313,11.16757 8.40705,14.05357c6.39939,2.886 5.01913,2.886 10.91661,-0.12548l-0.00001,0zm1.00383,-44.67028c5.52104,-2.63504 7.77966,-6.39939 7.77966,-12.79879c0,-5.64653 -4.01531,-12.79879 -7.15226,-12.79879c-0.87835,0 -1.63122,-0.50192 -1.63122,-1.25478c0,-2.00765 -8.28157,-1.38026 -12.42235,0.87835c-5.14461,3.01148 -7.02678,7.02678 -6.77583,14.43001c0.12548,6.52487 1.88217,9.03444 7.90513,11.92044c4.39174,2.00765 7.77966,2.00765 12.29687,-0.37643l0,-0.00001z"/>
  </g>
 </g>
</svg>
