<svg viewBox="0 0 285 285" xmlns="http://www.w3.org/2000/svg">
    <g>
      <path fill="#CCD0D2" d="m54.3049,78.257l0,171.20652c0,8.5915 6.91179,15.56447 15.4279,15.56447l146.5624,0c8.51611,0 15.4279,-6.97298 15.4279,-15.56447l0,-171.20652l-177.4182,0z"/>
      <path fill="#CCD0D2" d="m108.30167,16.00001l69.42467,0c8.51611,0 15.4279,6.97298 15.4279,15.56447l0,15.56447l-15.4279,0l0,-7.78224c0,-4.2953 -3.4484,-7.78224 -7.71395,-7.78224l-53.99677,0c-4.26555,0 -7.71395,3.48604 -7.71395,7.78224l0,7.78224l-15.4279,0l0,-15.56447c0,-8.5915 6.91179,-15.56447 15.4279,-15.56447z"/>
      <path fill="#AEB1B3" d="m85.15982,230.00749c0,6.45096 5.18406,11.67291 11.57048,11.67291c6.3873,0 11.57048,-5.22195 11.57048,-11.67291l0,-113.0812l-23.14097,0l0,113.0812zm92.56651,-113.0812l0,113.08209c0,6.44384 5.18406,11.67291 11.57048,11.67291c6.3873,0 11.57048,-5.22995 11.57048,-11.67291l0,-113.08209l-23.14097,0zm-46.2837,113.0812c0,6.44384 5.18406,11.67291 11.57048,11.67291c6.3873,0 11.57048,-5.22995 11.57048,-11.67291l0,-113.0812l-23.14185,0l0.00088,113.0812l0,0z"/>
      <path fill="#AEB1B3" d="m54.3049,86.03924l177.4182,0l0,15.56447l-177.4182,0l0,-15.56447z"/>
      <path fill="#D1D5D7" d="m54.3049,47.12806l177.4182,0c8.51611,0 15.4279,6.97298 15.4279,15.56447l0,23.34671l-208.274,0l0,-23.34671c0,-8.5915 6.91179,-15.56447 15.4279,-15.56447z"/>
    </g>
</svg>
