<svg width="256" height="256" viewBox="0 0 256 256" xmlns="http://www.w3.org/2000/svg" >
 <g>
 <g id="svg_1">
   <path id="svg_2"
         d="m201.621,64.848l0,-26.582l-24.25,0l0,-26.581l-48.5,0l0,26.581l-24.25,0l0,26.582l-24.25,0l0,26.581l48.5,0l48.5,0l48.5,0l0,-26.581l-24.25,0z"
         fill="#AF8655"/>
         <g id="svg_3">
    <path id="svg_4" d="m240.268,91.429l-37.91,92.502l-126.054,-28.668l-14.33,-63.834l178.294,0z" fill="#fff"/>
             <circle id="svg_5" r="18.236" cy="226.079" cx="202.507" fill="#AF8655"/>
   </g>
  </g>
     <g id="outlines">
   <path id="svg_6"
         d="m243.969,92.947c1.078,-2.629 -0.859,-5.517 -3.701,-5.517l-10.397,0l0,-22.582c0,-2.209 -1.791,-4 -4,-4l-20.25,0l0,-22.582c0,-2.209 -1.791,-4 -4,-4l-20.25,0l0,-22.581c0,-2.209 -1.791,-4 -4,-4l-48.5,0c-2.209,0 -4,1.791 -4,4l0,22.582l-20.25,0c-2.209,0 -4,1.791 -4,4l0,22.582l-20.25,0c-2.209,0 -4,1.791 -4,4l0,22.581l-11.23,0l-8.672,-36.79c-0.273,-1.161 -1.051,-2.14 -2.121,-2.668l-36.846,-18.21c-1.98,-0.979 -4.379,-0.167 -5.358,1.813s-0.167,4.38 1.813,5.358l35.158,17.375c33.462,141.948 12.134,62.626 39.047,157.289c3.018,10.616 16.994,12.912 23.275,3.893l28.943,-41.553l58.128,13.22l0,17.053c-10.358,1.89 -18.236,10.974 -18.236,21.868c0,12.261 9.975,22.236 22.236,22.236s22.236,-9.975 22.236,-22.236c0,-10.895 -7.879,-19.978 -18.236,-21.868l0,-19.857l37.461,-91.406zm-22.098,-5.517l-40.5,0l0,-18.582l40.5,0l0,18.582zm-89,0l0,-18.582l40.5,0l0,18.582l-40.5,0zm64.75,-26.582c-14.63,0 -25.87,0 -40.5,0l0,-18.582l40.5,0l0,18.582zm-64.75,-45.163l40.5,0l0,18.582c-14.63,0 -25.87,0 -40.5,0l0,-18.582zm-24.25,26.581l40.5,0l0,18.582c-14.63,0 -25.87,0 -40.5,0l0,-18.582zm-24.25,26.582l40.5,0l0,18.582l-40.5,0l0,-18.582zm149.935,26.582l-34.365,83.849c-3.074,-0.699 -116.839,-26.572 -120.288,-27.356l-12.681,-56.493l167.334,0zm-129.434,115.488c-2.444,3.507 -7.845,2.608 -9.015,-1.508l-13.86,-48.75l49.967,11.364l-27.092,38.894zm111.871,15.161c0,7.85 -6.386,14.236 -14.236,14.236s-14.236,-6.386 -14.236,-14.236s6.386,-14.236 14.236,-14.236s14.236,6.386 14.236,14.236z"
         fill="#0f2444"/>
  </g>
     <g id="logo">
   <path id="svg_7"
         d="m114.42106,149.94936c-0.90431,-0.40191 -2.26077,-1.6579 -3.01436,-2.8134c-1.4067,-2.11005 -1.4067,-2.11005 -1.4067,-19.99525c0,-20.29668 0.05024,-20.49764 3.91867,-22.55745c1.75838,-0.95455 2.8134,-1.05503 10.3493,-1.05503c6.98326,0 8.79188,0.15072 11.00241,0.95455c4.77274,1.75838 8.18901,4.97369 9.54547,9.04308c1.10526,3.11484 0.55263,8.4402 -1.05503,10.95217c-0.35168,0.60287 0.05024,2.16029 0.60287,2.16029c0.55263,0 2.8134,2.21053 3.81819,3.76795c0.80383,1.20574 1.00479,2.36125 0.95455,5.77752c0,4.4713 -0.55263,6.17944 -2.86364,8.84212c-1.55742,1.85885 -5.77752,4.82297 -6.27991,4.52154c-0.2512,-0.15072 -0.90431,0.05024 -1.4067,0.45215c-1.35646,1.05503 -21.80386,1.00479 -24.16511,-0.05024l0,0l-0.00001,0zm14.41868,-8.74164c2.61245,-1.35646 3.51675,-2.76316 3.51675,-5.6268c0,-2.05981 -0.2512,-2.61245 -1.75838,-4.16986c-1.35646,-1.30622 -2.21053,-1.75838 -3.46651,-1.75838c-3.66747,0 -6.02872,2.36125 -6.02872,5.97848c0,3.0646 0.85407,4.4713 3.36603,5.6268c2.5622,1.1555 2.00957,1.1555 4.37082,-0.05024l0,0l0.00001,0zm0.40191,-17.8852c2.21053,-1.05503 3.11484,-2.5622 3.11484,-5.12441c0,-2.26077 -1.60766,-5.12441 -2.86364,-5.12441c-0.35168,0 -0.65311,-0.20096 -0.65311,-0.50239c0,-0.80383 -3.3158,-0.55263 -4.97369,0.35168c-2.05981,1.20574 -2.8134,2.8134 -2.71292,5.77752c0.05024,2.61245 0.75359,3.61723 3.16508,4.77274c1.75838,0.80383 3.11484,0.80383 4.92345,-0.15072l0,0l-0.00001,-0.00001z"
         fill="#0f2444"/>
         <path id="svg_8"
               d="m158.52321,149.94936c-0.90431,-0.40191 -2.26077,-1.6579 -3.01436,-2.8134c-1.4067,-2.11005 -1.4067,-2.11005 -1.4067,-19.99525c0,-20.29668 0.05024,-20.49764 3.91867,-22.55745c1.75838,-0.95455 2.8134,-1.05503 10.3493,-1.05503c6.98326,0 8.79188,0.15072 11.00241,0.95455c4.77274,1.75838 8.18901,4.97369 9.54547,9.04308c1.10526,3.11484 0.55263,8.4402 -1.05503,10.95217c-0.35168,0.60287 0.05024,2.16029 0.60287,2.16029c0.55263,0 2.8134,2.21053 3.81819,3.76795c0.80383,1.20574 1.00479,2.36125 0.95455,5.77752c0,4.4713 -0.55263,6.17944 -2.86364,8.84212c-1.55742,1.85885 -5.77752,4.82297 -6.27991,4.52154c-0.2512,-0.15072 -0.90431,0.05024 -1.4067,0.45215c-1.35646,1.05503 -21.80386,1.00479 -24.16511,-0.05024l0,0l-0.00001,0zm14.41868,-8.74164c2.61245,-1.35646 3.51675,-2.76316 3.51675,-5.6268c0,-2.05981 -0.2512,-2.61245 -1.75838,-4.16986c-1.35646,-1.30622 -2.21053,-1.75838 -3.46651,-1.75838c-3.66747,0 -6.02872,2.36125 -6.02872,5.97848c0,3.0646 0.85407,4.4713 3.36603,5.6268c2.5622,1.1555 2.00957,1.1555 4.37082,-0.05024l0,0l0.00001,0zm0.40191,-17.8852c2.21053,-1.05503 3.11484,-2.5622 3.11484,-5.12441c0,-2.26077 -1.60766,-5.12441 -2.86364,-5.12441c-0.35168,0 -0.65311,-0.20096 -0.65311,-0.50239c0,-0.80383 -3.3158,-0.55263 -4.97369,0.35168c-2.05981,1.20574 -2.8134,2.8134 -2.71292,5.77752c0.05024,2.61245 0.75359,3.61723 3.16508,4.77274c1.75838,0.80383 3.11484,0.80383 4.92345,-0.15072l0,0l-0.00001,-0.00001z"
               fill="#0f2444"/>
  </g>
 </g>
</svg>
